<mxfile host="app.diagrams.net" modified="2024-01-25T00:22:34.276Z" agent="Mozilla/5.0 (X11; Linux x86_64) AppleWebKit/537.36 (KHTML, like Gecko) Chrome/116.0.0.0 Safari/537.36" version="23.0.1" etag="X0dvE1u5U9tjMU-n7LQj" type="github">
  <diagram name="Page-1" id="cQ1SxiyWW54TsketSCMd">
    <mxGraphModel>
      <root>
        <mxCell id="0" />
        <mxCell id="1" parent="0" />
      </root>
    </mxGraphModel>
  </diagram>
</mxfile>
